<?xml version="1.0" standalone="no"?><!DOCTYPE svg PUBLIC "-//W3C//DTD SVG 1.1//EN" "http://www.w3.org/Graphics/SVG/1.1/DTD/svg11.dtd"><svg t="1554435787544" class="icon" style="" viewBox="0 0 1024 1024" version="1.1" xmlns="http://www.w3.org/2000/svg" p-id="8728" xmlns:xlink="http://www.w3.org/1999/xlink" width="200" height="200"><defs><style type="text/css"></style></defs><path d="M511.551344 583.852996A291.421585 291.421585 0 0 1 305.484615 86.318569 291.421585 291.421585 0 1 1 717.560431 498.498139a289.519431 289.519431 0 0 1-206.009087 85.354857z m0-542.494441a251.072855 251.072855 0 0 0-177.534413 428.607268 251.072855 251.072855 0 1 0 355.068825-355.068825A249.424321 249.424321 0 0 0 511.551344 41.358555z" p-id="8729" fill="#1296db"></path><path d="M951.698348 1024H71.404339A20.174365 20.174365 0 0 1 51.229974 1003.825635a459.975523 459.975523 0 0 1 210.078545-386.425552L283.269757 651.20079A419.546096 419.546096 0 0 0 92.062889 983.65127h838.988437c-4.911017-104.606965-47.980404-202.239364-122.533329-276.792289a417.217398 417.217398 0 0 0-296.966653-123.005985c-4.380719 0-8.807551 0.069169-13.153686 0.195979l-1.245047-40.34873c4.76115-0.149867 9.602998-0.219036 14.387204-0.219036a459.975523 459.975523 0 0 1 460.32137 460.32137 20.174365 20.174365 0 0 1-20.162837 20.197421z" p-id="8730" fill="#1296db"></path></svg>